# xmcd
#
# Track frame offsets:
#	150
#	13391
#	27795
#	41717
#	55262
#	70582
#	82820
#	100843
#	121126
#	134700
#	145679
#	159402
#	173680
#	187016
#	200218
#	239106
#	253301
#	267605
#	282203
#	298552
#
# Disc length: 4186 seconds
#
# Revision: 0
# Processed by: cddbd v1.4PL0 Copyright (c) Steve Scherf et al.
# Submitted via: dBpowerAMP V4.0
#
DISCID=33105814
DTITLE=CINEMA - CINE
DYEAR=2001
DGENRE=Chanson
TTITLE0=Cotton Club stomp  Duke Ellington
TTITLE1=the Mooche  Duke Ellington
TTITLE2=mood indigo  Duke Ellington
TTITLE3=diga diga doo  Duke Ellington
TTITLE4=stormy weather  Lena Hoorne
TTITLE5=geechy Joe  Cab Calloway
TTITLE6=ain't misbehavin'  Fats Waller
TTITLE7=moppin' and boppin'  Fats Waller
TTITLE8=that' aint't right  Ada Brown and Fats Waller
TTITLE9=all god's chillun got rythm  Ivie Anderson
TTITLE10=do you know what it means to miss New Orleans  L.Armstrong
TTITLE11=where the blues were born in New Orleans  L.Armstrong
TTITLE12=mahogany hall stomp  L.Armstrong
TTITLE13=farewell to Storyville  L.Armstrong
TTITLE14=sing sing sing  Benny Goodman
TTITLE15=things ain't what they used tobe  Duke Ellington
TTITLE16=taking a chance of love  Esthel Waters
TTITLE17=Minnie the moocher  Cab Calloway
TTITLE18=in the mood  Glen Miller
TTITLE19=chatanooga choo choo  Glen Miller
EXTD=
EXTT0=
EXTT1=
EXTT2=
EXTT3=
EXTT4=
EXTT5=
EXTT6=
EXTT7=
EXTT8=
EXTT9=
EXTT10=
EXTT11=
EXTT12=
EXTT13=
EXTT14=
EXTT15=
EXTT16=
EXTT17=
EXTT18=
EXTT19=
PLAYORDER=
